<?xml version="1.0" encoding="UTF-8" standalone="no"?>
<svg
   class="feather feather-linkedin"
   width="24"
   height="24"
   viewBox="0 0 24 24"
   fill="none"
   stroke="currentColor"
   stroke-width="2"
   stroke-linecap="round"
   stroke-linejoin="round"
   version="1.1"
   id="svg8"
   sodipodi:docname="brand-linkedin.svg"
   inkscape:version="1.1.2 (b8e25be833, 2022-02-05)"
   xmlns:inkscape="http://www.inkscape.org/namespaces/inkscape"
   xmlns:sodipodi="http://sodipodi.sourceforge.net/DTD/sodipodi-0.dtd"
   xmlns="http://www.w3.org/2000/svg"
   xmlns:svg="http://www.w3.org/2000/svg">
  <defs
     id="defs12" />
  <sodipodi:namedview
     id="namedview10"
     pagecolor="#ffffff"
     bordercolor="#666666"
     borderopacity="1.0"
     inkscape:pageshadow="2"
     inkscape:pageopacity="0.0"
     inkscape:pagecheckerboard="0"
     showgrid="false"
     inkscape:zoom="34.291667"
     inkscape:cx="12.029161"
     inkscape:cy="12.014581"
     inkscape:window-width="1920"
     inkscape:window-height="1009"
     inkscape:window-x="-8"
     inkscape:window-y="-8"
     inkscape:window-maximized="1"
     inkscape:current-layer="svg8" />
  <path
     d="m 16,8 c 3.313708,0 6,2.686292 6,6 v 7 h -4 v -7 c 0,-1.104569 -0.895431,-2 -2,-2 -1.104569,0 -2,0.778784 -2,2 v 7 h -4 v -7 c 0,-3.313708 2.686292,-6 6,-6 z"
     id="path2"
     sodipodi:nodetypes="ssccsssccss" />
  <rect
     x="2"
     y="9"
     height="12"
     id="rect4"
     width="4" />
  <circle
     cx="4"
     cy="4"
     r="2"
     id="circle6" />
  <path
     style="fill:#000000;stroke:#000000;stroke-width:0.119563;stroke-miterlimit:4.17143"
     d="M 3.7196351,4.940168 C 3.0050593,4.7116346 2.7851645,3.8357875 3.310476,3.310476 3.8461943,2.7747577 4.7300883,3.0109318 4.944059,3.7469651 5.0032631,3.95062 4.986909,4.1972182 4.9013752,4.3905816 4.82278,4.5682591 4.5997477,4.7969168 4.4185803,4.8855538 4.2214445,4.9820033 3.9232906,5.0053005 3.7196351,4.940168 Z"
     id="path981" />
</svg>
