<svg xmlns="http://www.w3.org/2000/svg" width="260" height="260" viewBox="0 0 260 260" fill="none"><g clip-path="url(#clip0_1275_1544)">
<path d="M9.62963 52.963C19.2593 29.4907 26.4815 19.2593 52.963 9.62963C79.4444 0 128.796 0 128.796 0C128.796 0 185.972 0 207.037 9.62963C228.102 19.2593 240.741 28.8889 250.37 52.963C260 77.037 260 131.806 260 131.806C260 131.806 260 181.157 250.37 207.037C240.741 232.917 230.509 240.741 207.037 250.37C183.565 260 128.796 260 128.796 260C128.796 260 78.8426 260 52.963 250.37C27.0833 240.741 19.2593 228.704 9.62963 207.037C0 185.37 0 128.796 0 128.796C0 128.796 0 76.4352 9.62963 52.963Z" fill="#1E1E2E"></path>
<path fill-rule="evenodd" clip-rule="evenodd" d="M73.3406 157.6C68.6397 162.3 68.6397 169.922 73.3406 174.623C78.0413 179.323 85.6626 179.323 90.3634 174.623L120.456 144.53C128.481 136.505 128.481 123.495 120.456 115.47L90.3634 85.3776C85.6627 80.6769 78.0413 80.6769 73.3406 85.3776C68.6397 90.0784 68.6397 97.6998 73.3406 102.401L100.94 130L73.3406 157.6ZM142.037 154.074C135.389 154.074 130 159.463 130 166.111C130 172.759 135.389 178.148 142.037 178.148H178.148C184.796 178.148 190.185 172.759 190.185 166.111C190.185 159.463 184.796 154.074 178.148 154.074H142.037Z" fill="white"></path>
</g><defs>
<clipPath id="clip0_1275_1544">
<rect width="260" height="260" fill="white"></rect>
</clipPath>
</defs></svg>