<svg width="20" height="20" viewBox="0 0 20 20" fill="none" xmlns="http://www.w3.org/2000/svg">
<rect x="8" y="1" width="4" height="4" rx="2" fill="currentColor"/>
<path d="M7.5 7C7.5 6.44772 7.94772 6 8.5 6H9.5C10.0523 6 10.5 6.44772 10.5 7C10.5 7.55228 10.0523 8 9.5 8H8.5C7.94772 8 7.5 7.55228 7.5 7Z" fill="currentColor"/>
<path d="M7.5 18C7.5 17.4477 7.94772 17 8.5 17H12.5C13.0523 17 13.5 17.4477 13.5 18C13.5 18.5523 13.0523 19 12.5 19H8.5C7.94772 19 7.5 18.5523 7.5 18Z" fill="currentColor"/>
<path d="M9 6H11C11.5523 6 12 6.44772 12 7V19H9V6Z" fill="currentColor"/>
</svg>
