<svg width="1115" height="836" viewBox="0 0 1115 836" fill="none" xmlns="http://www.w3.org/2000/svg">
    <style>
        /* Base Setup & Keyframe Definitions */
        #moon,
        #mountain-xl,
        #mountain-xs,
        #tent,
        #tree-xs,
        #tree-xl,
        #stars {
            opacity: 0;
            animation: floatUpIn 0.8s cubic-bezier(0.25, 1, 0.5, 1) forwards;
        }

        /* Entrance animation for main components */
        @keyframes floatUpIn {
            from {
                opacity: 0;
                transform: translateY(30px);
            }

            to {
                opacity: 1;
                transform: translateY(0);
            }
        }

        /* Sequential Stagger Delay Timeline */

        /* Wave 1: Moon */
        #moon {
            animation-delay: 0.1s;
        }

        /* Wave 2: Mountains */
        #mountain-xl {
            animation-delay: 0.5s;
        }

        #mountain-xs {
            animation-delay: 0.7s;
        }

        /* Wave 3: Tent */
        #tent {
            animation-delay: 1.1s;
        }

        /* Wave 4: Trees */
        #tree-xl {
            animation-delay: 1.5s;
        }

        #tree-xs {
            animation-delay: 1.7s;
        }

        /* ----------------------------------------------------
   Star Twinkle Animations
   ---------------------------------------------------- */
        .star {
            opacity: 0.3;
            animation: twinkle 3s ease-in-out infinite alternate;
        }

        @keyframes twinkle {
            0% {
                opacity: 0.2;
            }

            50% {
                opacity: 1;
                /* Adds a subtle luminous halo to the larger dots */
                filter: drop-shadow(0 0 1px rgba(255, 255, 255, 0.8));
            }

            100% {
                opacity: 0.3;
            }
        }

        /* Speed variations to prevent uniform blinking */
        .blink-fast {
            animation-duration: 1.5s;
            animation-delay: 0.2s;
        }

        .blink-med {
            animation-duration: 2.8s;
            animation-delay: 0.9s;
        }

        .blink-slow {
            animation-duration: 4.2s;
            animation-delay: 1.5s;
        }
    </style>
    <!-- Background Stars -->
    <g id="stars">
        <!-- Star Group 1 (Fast Blink) -->
        <circle class="star blink-fast" cx="150" cy="120" r="4" fill="#FFFFFF" />
        <circle class="star blink-fast" cx="450" cy="220" r="3" fill="#FFFFFF" />
        <circle class="star blink-fast" cx="820" cy="180" r="2" fill="#FFFFFF" />
        <circle class="star blink-fast" cx="980" cy="310" r="2" fill="#FFFFFF" />
        <circle class="star blink-fast" cx="290" cy="400" r="2" fill="#FFFFFF" />

        <!-- Star Group 2 (Medium Blink) -->
        <circle class="star blink-med" cx="70" cy="280" r="2" fill="#FFFFFF" />
        <circle class="star blink-med" cx="380" cy="90" r="3" fill="#FFFFFF" />
        <circle class="star blink-med" cx="620" cy="140" r="4" fill="#FFFFFF" />
        <circle class="star blink-med" cx="740" cy="380" r="2" fill="#FFFFFF" />
        <circle class="star blink-med" cx="1050" cy="190" r="3" fill="#FFFFFF" />

        <!-- Star Group 3 (Slow Fade/Glow) -->
        <circle class="star blink-slow" cx="220" cy="70" r="2" fill="#FFFFFF" />
        <circle class="star blink-slow" cx="530" cy="320" r="3" fill="#FFFFFF" />
        <circle class="star blink-slow" cx="900" cy="100" r="2" fill="#FFFFFF" />
        <circle class="star blink-slow" cx="110" cy="490" r="3" fill="#FFFFFF" />
        <circle class="star blink-slow" cx="1000" cy="400" r="4" fill="#FFFFFF" />
    </g>
    <g id="moon">
        <!-- Moon Path -->
        <g filter="url(#filter0_d_1274_1780)">
            <path
                d="M202.61 150.074C207.294 148.453 211.365 153.189 210.297 158.035C209.124 163.357 208.506 168.887 208.506 174.561C208.506 216.791 242.729 251.025 284.945 251.025C285.887 251.025 286.825 251.008 287.759 250.974C292.711 250.795 296.617 255.664 294.172 259.982C281.044 283.168 256.157 298.816 227.616 298.816C185.4 298.816 151.177 264.582 151.177 222.352C151.177 188.882 172.674 160.436 202.61 150.074Z"
                fill="#CDD6F4" />
        </g>
    </g>
    </g> -->
    <g id="mountain-xl" clip-path="url(#clip1_1274_1780)">
        <path
            d="M1089.41 803.506C1099.88 816.601 1090.56 836 1073.79 836H198.613C181.843 836 172.519 816.601 182.995 803.506L620.583 256.522C628.59 246.514 643.811 246.514 651.818 256.522L1089.41 803.506Z"
            fill="#45475A" />
        <path d="M636.2 237V836H1115.4L636.2 237Z" fill="#313244" />
    </g>
    <g id="mountain-xs" clip-path="url(#clip2_1274_1780)">
        <path
            d="M506.798 803.493C517.291 816.585 507.971 836 491.192 836H30.0747C13.2963 836 3.97538 816.585 14.4685 803.493L245.027 515.82C253.033 505.831 268.233 505.831 276.24 515.82L506.798 803.493Z"
            fill="#45475A" />
        <path d="M260.633 496.348V836H532.852L260.633 496.348Z" fill="#313244" />
    </g>
    <g id="tree-xs">
        <path fill-rule="evenodd" clip-rule="evenodd"
            d="M163.338 635.604C157.982 634.262 153.351 636.76 150.196 640.784C148.364 643.121 147.39 645.779 147.448 648.562C147.503 651.232 148.495 653.408 149.505 654.948C150.511 656.481 151.695 657.632 152.582 658.384C153.37 659.051 154.276 659.697 154.997 660.058L159.556 653.718C159.498 655.663 158.685 658.082 157.063 660.724C153.406 664.398 150.096 668.99 147.391 673.903C143.154 668.708 137.629 664.649 130.606 663.119L130.594 663.117L130.584 663.114C118.236 660.47 108.735 662.249 101.868 667.774C95.2698 673.084 92.3152 680.92 90.7723 687.724C89.0461 695.336 89.97 703.996 94.024 710.598C96.0951 713.971 99.062 716.912 102.991 718.693C106.947 720.485 111.457 720.907 116.256 719.911C116.26 719.911 116.264 719.91 116.268 719.909C116.271 719.908 116.273 719.908 116.276 719.908C128.629 717.365 133.117 706.254 131.994 697.519C131.431 693.139 129.416 688.575 125.546 685.565C123.389 683.889 120.89 682.879 118.199 682.575C119.791 681.947 121.35 681.573 122.716 681.506C125.973 681.359 129.376 683.239 132.453 687.475C135.513 691.686 137.451 697.251 137.834 701.854L137.837 701.896L137.841 701.938C138.273 706.408 137.191 710.893 135.199 715.851C134.203 718.33 133.032 720.806 131.773 723.425C130.542 725.984 129.205 728.728 128.039 731.47L128.033 731.484L128.027 731.499C126.104 736.086 123.904 740.007 121.481 745.019C119.257 749.621 117.087 754.712 115.949 760.463L115.842 761.021L115.817 761.157L115.797 761.293C115.063 766.537 113.906 771.611 112.849 777.209C111.839 782.556 110.953 788.263 111.174 793.707C111.345 797.907 110.772 806.548 110.097 814.54C109.767 818.449 109.425 822.073 109.165 824.721C109.035 826.044 108.926 827.121 108.85 827.867C108.812 828.239 108.781 828.529 108.761 828.725C108.751 828.822 108.743 828.897 108.738 828.946C108.735 828.971 108.733 828.989 108.732 829.001C108.731 829.007 108.731 829.012 108.731 829.015C108.73 829.016 108.73 829.017 108.73 829.018V829.018L107.989 835.999L169.084 836L161.284 825.838C154.184 816.588 146.918 802.199 144.412 788.232C141.906 774.267 144.338 762.438 154.003 755.33C157.962 752.689 162.754 749.71 167.353 748.107C172.168 746.429 174.882 746.872 176.471 748.175L176.598 748.279L176.731 748.376C180.142 750.888 181.836 754.392 181.947 756.789C181.997 757.883 181.727 758.53 181.427 758.922C181.142 759.295 180.418 759.979 178.543 760.39C176.592 760.818 175.807 760.483 175.612 760.386C175.37 760.266 175.048 760.007 174.698 759.348C174.33 758.656 174.084 757.795 173.944 756.994C173.879 756.617 173.846 756.307 173.83 756.112C173.822 756.016 173.818 755.952 173.817 755.926L173.817 755.939C173.817 755.943 173.817 755.949 173.818 755.955C173.818 755.958 173.818 755.962 173.818 755.965C173.818 755.967 173.818 755.97 173.818 755.97C173.818 755.971 173.814 755.971 173.768 755.972L161.306 755.03C159.544 765.625 165.515 773.986 173.51 777.035C181.591 780.117 191.562 777.71 197.108 768.249C203.197 758.183 199.388 747.828 193.602 740.869C187.9 734.011 179.061 728.718 170.876 727.692C166.937 727.065 163.214 727.158 159.723 727.825C160.507 724.154 161.23 720.084 161.816 716.549C162.311 713.559 162.727 710.833 163.019 708.855C163.165 707.866 163.281 707.062 163.36 706.503C163.4 706.223 163.43 706.005 163.451 705.856C163.461 705.781 163.469 705.723 163.475 705.684C163.477 705.665 163.479 705.649 163.481 705.639C163.482 705.634 163.482 705.629 163.483 705.626C163.483 705.625 163.483 705.624 163.483 705.623V705.622C163.483 705.621 163.483 705.621 157.243 704.763L163.483 705.621L163.542 705.194V704.763C163.542 699.299 164.208 692.761 165.956 686.738C167.722 680.648 170.42 675.676 174.051 672.591C177.189 669.958 179.432 669.195 180.459 669.188C180.776 669.185 180.885 669.246 181.016 669.347C181.222 669.507 181.794 670.063 182.406 671.612L182.447 671.716L182.492 671.818C182.492 671.819 182.493 671.82 182.493 671.821C182.285 671.969 181.959 672.171 181.463 672.4C180.392 672.894 179.102 673.253 177.985 673.471C177.445 673.577 177.019 673.635 176.772 673.661C176.639 673.675 176.617 673.673 176.684 673.671C176.707 673.67 176.85 673.665 177.058 673.676C177.157 673.681 177.372 673.695 177.647 673.738C177.772 673.757 177.957 673.79 178.181 673.846L173.837 685.615C174.431 685.913 174.982 686.066 175.337 686.144C176.435 686.402 180.611 687.264 185.112 686.441C187.643 685.978 190.649 684.917 193.218 682.56C195.855 680.141 197.543 676.802 198.108 672.704L198.158 672.356C199.155 665.072 197.09 658.48 191.124 654.633C186.941 651.936 181.709 651.207 176.354 651.604C176.043 648.881 175.26 646.179 173.712 643.853L173.687 643.815L173.662 643.778C171.263 640.281 167.856 636.736 163.338 635.604ZM191.689 765.031C191.567 765.24 191.442 765.443 191.315 765.642C191.442 765.443 191.566 765.24 191.688 765.031L191.689 765.031ZM185.496 741.542C185.586 741.623 185.676 741.704 185.766 741.785C185.587 741.622 185.405 741.461 185.223 741.302L185.496 741.542ZM172.13 740.717C172.052 740.72 171.974 740.724 171.896 740.728C172.057 740.719 172.217 740.713 172.376 740.709L172.13 740.717ZM171.507 734.187C171.526 734.191 171.545 734.195 171.564 734.198C171.534 734.192 171.505 734.186 171.475 734.18C171.485 734.182 171.496 734.185 171.507 734.187ZM170.897 734.074C170.91 734.076 170.923 734.078 170.935 734.08C170.889 734.072 170.842 734.065 170.795 734.058C170.829 734.063 170.863 734.068 170.897 734.074ZM157.243 704.763C157.242 704.77 157.2 705.073 157.123 705.614C157.201 705.066 157.242 704.762 157.242 704.762L157.243 704.763ZM157.385 700.122C157.372 700.323 157.361 700.523 157.35 700.722C157.34 700.921 157.33 701.12 157.322 701.317C157.313 701.515 157.304 701.711 157.297 701.907C157.319 701.32 157.348 700.725 157.385 700.122ZM113.356 695.762C115.21 695.513 116.223 695.677 116.661 695.806C116.661 695.854 116.658 695.91 116.653 695.973C116.614 696.443 116.437 697.122 116.036 697.883C115.165 699.537 113.878 700.465 113.021 700.681C112.68 700.767 112.337 700.77 111.9 700.611C111.428 700.439 110.583 699.977 109.484 698.726C107.771 696.692 107.433 695.019 107.53 693.683C107.639 692.177 108.369 690.374 109.939 688.461C110.35 687.961 110.796 687.479 111.269 687.021L113.356 695.762ZM121.893 690.721C121.962 690.778 122.03 690.836 122.097 690.895C121.963 690.777 121.825 690.663 121.685 690.554L121.893 690.721ZM117.179 688.817C117.252 688.822 117.323 688.829 117.395 688.836C117.406 688.837 117.417 688.839 117.428 688.84C117.345 688.831 117.263 688.823 117.179 688.817ZM176.743 679.979C176.722 679.979 176.705 679.978 176.69 679.977C176.69 679.976 176.689 679.976 176.689 679.976C176.703 679.978 176.722 679.979 176.743 679.979ZM117.526 676.12C117.611 676.094 117.696 676.067 117.781 676.042C117.697 676.067 117.613 676.093 117.529 676.119C117.528 676.12 117.527 676.12 117.526 676.12ZM122.416 675.201C122.14 675.214 121.86 675.235 121.579 675.263C121.86 675.235 122.139 675.214 122.416 675.2L122.416 675.201ZM191.879 671.767C191.892 671.678 191.905 671.589 191.917 671.5L191.879 671.767ZM157.492 669.851L157.745 669.52C157.776 669.479 157.808 669.439 157.84 669.398C157.723 669.548 157.607 669.699 157.492 669.851ZM159.034 667.914C158.915 668.057 158.796 668.2 158.677 668.345C158.709 668.306 158.741 668.267 158.773 668.228C158.86 668.123 158.947 668.018 159.034 667.914ZM192.068 667.814C192.079 667.965 192.087 668.117 192.093 668.271L192.082 668.041C192.078 667.965 192.073 667.889 192.068 667.814ZM184.747 664.26C184.807 664.305 184.867 664.351 184.926 664.398C184.867 664.351 184.808 664.305 184.748 664.261L184.747 664.26ZM169.803 659.37L169.803 659.37C169.827 659.227 169.849 659.084 169.871 658.941C169.85 659.084 169.827 659.227 169.803 659.37ZM172.483 658.497C172.359 658.526 172.232 658.558 172.104 658.592L172.295 658.543C172.358 658.527 172.421 658.511 172.483 658.497ZM184.437 658.497C184.49 658.512 184.542 658.527 184.595 658.543C184.475 658.507 184.354 658.473 184.232 658.44L184.437 658.497ZM173.367 658.325L173.433 658.314C173.463 658.309 173.492 658.304 173.521 658.299C173.47 658.308 173.418 658.317 173.367 658.325ZM183.389 658.238C183.448 658.251 183.507 658.263 183.565 658.276C183.504 658.263 183.442 658.249 183.38 658.236L183.389 658.238ZM170.097 652.332C170.111 652.46 170.124 652.589 170.136 652.719C170.112 652.459 170.083 652.203 170.049 651.951L170.097 652.332ZM154.685 651.348C154.748 651.448 154.811 651.545 154.877 651.64L154.769 651.479C154.74 651.436 154.713 651.392 154.685 651.348ZM165.208 648.84C165.321 649.214 165.418 649.605 165.5 650.01C165.479 649.907 165.458 649.804 165.435 649.702C165.367 649.406 165.292 649.118 165.208 648.84ZM169.106 648.504C169.129 648.555 169.152 648.607 169.174 648.659C169.129 648.555 169.083 648.453 169.035 648.353L169.106 648.504ZM153.747 648.458L153.746 648.431C153.745 648.395 153.745 648.359 153.745 648.322C153.745 648.368 153.746 648.413 153.747 648.458ZM168.471 647.355L168.471 647.354C168.405 647.259 168.34 647.165 168.274 647.071C168.34 647.165 168.406 647.259 168.471 647.355ZM166.458 644.813C166.489 644.846 166.52 644.879 166.551 644.913C166.483 644.838 166.414 644.765 166.346 644.693C166.383 644.733 166.421 644.772 166.458 644.813Z"
            fill="#11111B" />
        <path
            d="M194.205 718.254C174.723 718.254 158.929 734.082 158.929 753.607C158.929 773.131 174.723 788.959 194.205 788.959C213.687 788.959 229.48 773.131 229.48 753.607C229.48 734.082 213.687 718.254 194.205 718.254Z"
            fill="#11111B" />
        <path
            d="M209.48 580C174.952 580 146.961 608.052 146.961 642.656C146.961 677.26 174.952 705.312 209.48 705.312C244.009 705.312 272 677.26 272 642.656C272 608.052 244.009 580 209.48 580Z"
            fill="#11111B" />
        <path
            d="M82.0787 650.705C54.421 650.705 32 673.175 32 700.893C32 728.612 54.421 751.081 82.0787 751.081C109.736 751.081 132.157 728.612 132.157 700.893C132.157 673.175 109.736 650.705 82.0787 650.705Z"
            fill="#11111B" />
    </g>
    <g id="tent">
        <path
            d="M633.618 835.583C627.397 835.583 621.853 831.671 619.758 825.814L546.195 619.991C545.405 617.82 545.158 615.487 545.477 613.198C545.796 610.91 546.671 608.734 548.026 606.86C550.787 602.959 555.273 600.908 560.055 600.908H732.646C738.539 600.908 743.851 604.133 746.178 609.546L834.447 815.231C836.394 819.777 835.928 824.926 833.22 829.049C831.869 831.07 830.038 832.724 827.891 833.865C825.744 835.005 823.347 835.595 820.915 835.583H633.618Z"
            fill="#F4900C" />
        <path
            d="M471.776 835.583C466.835 835.583 462.212 833.088 459.482 828.975C458.147 826.938 457.337 824.603 457.123 822.178C456.909 819.752 457.297 817.311 458.255 815.072L546.576 609.133C547.715 606.492 549.602 604.242 552.006 602.661C554.41 601.08 557.225 600.237 560.103 600.237C562.981 600.237 565.795 601.08 568.199 602.661C570.603 604.242 572.491 606.492 573.629 609.133L661.951 815.072C662.913 817.309 663.303 819.75 663.088 822.175C662.873 824.6 662.059 826.934 660.719 828.967C659.378 831 657.554 832.669 655.409 833.823C653.264 834.978 650.866 835.583 648.43 835.583H471.776Z"
            fill="#FFCC4D" />
        <path
            d="M573.629 665C572.333 661.536 546.774 661.537 545.477 665L489.023 830.597C488.044 833.212 489.977 836 492.769 836H627.232C630.024 836 631.957 833.213 630.978 830.598L573.629 665Z"
            fill="#FFE8B6" />
        <path
            d="M567.464 679.5C566.791 674.947 552.68 674.947 552.006 679.5L531.3 830.997C530.943 833.413 532.815 835.583 535.257 835.583H584.843C587.285 835.583 589.157 833.413 588.8 830.997L567.464 679.5Z"
            fill="#1E1E2E" />
    </g>
    <g id="tree-xl">
        <path fill-rule="evenodd" clip-rule="evenodd"
            d="M867.1 458.692C877.209 456.165 885.949 460.868 891.905 468.446C895.362 472.845 897.201 477.85 897.092 483.088C896.987 488.116 895.115 492.213 893.209 495.112C891.31 497.999 889.077 500.167 887.401 501.583C885.915 502.838 884.203 504.055 882.844 504.734L874.237 492.796C874.348 496.459 875.882 501.013 878.944 505.989C885.846 512.906 892.094 521.551 897.2 530.801C905.198 521.02 915.625 513.379 928.882 510.497L928.903 510.493L928.923 510.489C952.229 505.51 970.162 508.86 983.124 519.263C995.578 529.259 1001.15 544.014 1004.07 556.824C1007.33 571.156 1005.58 587.462 997.93 599.892C994.021 606.243 988.42 611.78 981.004 615.132C973.537 618.506 965.025 619.302 955.966 617.427C955.959 617.425 955.951 617.424 955.943 617.422C955.939 617.421 955.934 617.421 955.929 617.42C932.614 612.632 924.142 591.712 926.261 575.267C927.323 567.02 931.127 558.426 938.433 552.76C942.503 549.603 947.22 547.702 952.299 547.129C949.295 545.947 946.352 545.243 943.773 545.117C937.626 544.841 931.203 548.379 925.394 556.355C919.619 564.285 915.961 574.762 915.238 583.428L915.232 583.507L915.224 583.586C914.41 592.003 916.451 600.446 920.211 609.782C922.091 614.449 924.303 619.112 926.679 624.043C929.001 628.861 931.526 634.027 933.726 639.189L933.738 639.217L933.749 639.244C937.378 647.881 941.532 655.262 946.105 664.7C950.303 673.364 954.399 682.951 956.547 693.777L956.749 694.829L956.796 695.084L956.832 695.341C958.218 705.215 960.403 714.767 962.398 725.307C964.303 735.376 965.977 746.121 965.559 756.37C965.236 764.278 966.318 780.547 967.592 795.595C968.214 802.955 968.86 809.778 969.351 814.763C969.596 817.254 969.801 819.283 969.946 820.687C970.018 821.388 970.075 821.934 970.114 822.302C970.133 822.486 970.147 822.626 970.157 822.719C970.162 822.765 970.166 822.8 970.168 822.823C970.169 822.834 970.17 822.843 970.171 822.848C970.171 822.85 970.172 822.853 970.172 822.854V822.855L971.57 835.999L856.254 836L870.976 816.867C884.378 799.45 898.093 772.359 902.823 746.061C907.552 719.768 902.961 697.497 884.72 684.113C877.247 679.141 868.202 673.533 859.522 670.515C850.433 667.354 845.31 668.188 842.31 670.642L842.07 670.838L841.821 671.021C835.383 675.75 832.185 682.348 831.976 686.861C831.88 688.921 832.391 690.139 832.956 690.876C833.494 691.578 834.861 692.867 838.4 693.641C842.083 694.446 843.565 693.816 843.932 693.634C844.389 693.408 844.998 692.919 845.658 691.678C846.352 690.376 846.816 688.755 847.08 687.246C847.204 686.537 847.267 685.954 847.297 685.586C847.311 685.406 847.318 685.285 847.32 685.236L847.32 685.26C847.32 685.269 847.319 685.279 847.319 685.291C847.319 685.297 847.319 685.303 847.319 685.309C847.319 685.312 847.319 685.318 847.319 685.319C847.319 685.32 847.327 685.32 847.413 685.322L870.935 683.548C874.261 703.497 862.991 719.239 847.9 724.98C832.647 730.782 813.826 726.251 803.358 708.438C791.866 689.486 799.055 669.988 809.977 656.886C820.74 643.974 837.423 634.008 852.872 632.077C860.306 630.895 867.333 631.071 873.922 632.326C872.444 625.415 871.078 617.752 869.973 611.095C869.038 605.466 868.254 600.334 867.702 596.61C867.426 594.747 867.208 593.233 867.058 592.181C866.983 591.655 866.926 591.244 866.886 590.963C866.867 590.822 866.852 590.714 866.842 590.639C866.836 590.603 866.833 590.574 866.83 590.554C866.829 590.544 866.827 590.536 866.826 590.531C866.826 590.528 866.826 590.526 866.825 590.524V590.522C866.825 590.522 866.825 590.521 878.604 588.905L866.825 590.521L866.714 589.717V588.905C866.714 578.617 865.458 566.308 862.159 554.967C858.824 543.502 853.733 534.139 846.879 528.331C840.955 523.375 836.723 521.938 834.783 521.924C834.186 521.92 833.979 522.033 833.733 522.223C833.343 522.525 832.264 523.572 831.109 526.487L831.031 526.684L830.946 526.877C830.946 526.878 830.945 526.88 830.945 526.881C831.336 527.16 831.953 527.54 832.889 527.971C834.91 528.903 837.345 529.578 839.453 529.989C840.473 530.188 841.277 530.298 841.743 530.346C841.994 530.373 842.036 530.369 841.908 530.365C841.865 530.363 841.596 530.354 841.204 530.375C841.016 530.385 840.611 530.41 840.092 530.49C839.856 530.527 839.505 530.589 839.083 530.694L847.283 552.853C846.161 553.414 845.121 553.702 844.451 553.849C842.378 554.335 834.497 555.958 826.002 554.409C821.225 553.538 815.55 551.538 810.701 547.102C805.723 542.547 802.538 536.261 801.471 528.544L801.376 527.89C799.496 514.174 803.393 501.763 814.653 494.521C822.549 489.442 832.425 488.07 842.533 488.816C843.119 483.691 844.598 478.603 847.518 474.223L847.565 474.152L847.614 474.082C852.142 467.498 858.572 460.823 867.1 458.692ZM813.588 702.38C813.818 702.772 814.053 703.155 814.293 703.529C814.053 703.155 813.819 702.772 813.588 702.379L813.588 702.38ZM825.277 658.154C825.106 658.305 824.936 658.458 824.767 658.612C825.105 658.304 825.447 658.001 825.792 657.701L825.277 658.154ZM850.505 656.601C850.652 656.606 850.799 656.613 850.946 656.621C850.643 656.605 850.341 656.593 850.04 656.585L850.505 656.601ZM851.681 644.305C851.645 644.312 851.609 644.319 851.573 644.327C851.629 644.315 851.685 644.304 851.741 644.293C851.721 644.297 851.701 644.301 851.681 644.305ZM852.832 644.092C852.808 644.096 852.784 644.1 852.76 644.104C852.848 644.089 852.936 644.076 853.024 644.062C852.96 644.072 852.896 644.081 852.832 644.092ZM878.604 588.905C878.606 588.918 878.685 589.489 878.829 590.508C878.683 589.477 878.605 588.904 878.605 588.904L878.604 588.905ZM878.337 580.167C878.36 580.545 878.381 580.922 878.401 581.297C878.421 581.672 878.439 582.046 878.456 582.417C878.472 582.789 878.489 583.159 878.503 583.528C878.461 582.423 878.406 581.302 878.337 580.167ZM961.44 571.958C957.942 571.489 956.03 571.798 955.201 572.042C955.203 572.132 955.208 572.236 955.218 572.355C955.291 573.241 955.626 574.519 956.382 575.951C958.026 579.067 960.455 580.813 962.073 581.219C962.717 581.381 963.363 581.387 964.19 581.087C965.079 580.765 966.675 579.895 968.75 577.539C971.983 573.71 972.621 570.56 972.438 568.044C972.231 565.208 970.854 561.813 967.891 558.213C967.115 557.27 966.273 556.364 965.38 555.5L961.44 571.958ZM945.326 562.467C945.196 562.574 945.068 562.683 944.941 562.795C945.195 562.572 945.454 562.358 945.72 562.152L945.326 562.467ZM954.224 558.881C954.088 558.892 953.952 558.904 953.817 558.918C953.797 558.92 953.776 558.923 953.755 558.925C953.91 558.908 954.067 558.894 954.224 558.881ZM841.797 542.242C841.837 542.241 841.87 542.241 841.897 542.237C841.898 542.237 841.899 542.237 841.9 542.237C841.872 542.24 841.838 542.241 841.797 542.242ZM953.569 534.977C953.408 534.926 953.248 534.877 953.088 534.829C953.246 534.876 953.405 534.925 953.563 534.975C953.565 534.975 953.567 534.976 953.569 534.977ZM944.339 533.245C944.861 533.27 945.389 533.309 945.92 533.362C945.389 533.309 944.862 533.269 944.34 533.244L944.339 533.245ZM813.229 526.781C813.203 526.612 813.18 526.445 813.157 526.278L813.229 526.781ZM878.133 523.173L877.656 522.55C877.597 522.473 877.537 522.397 877.478 522.32C877.697 522.603 877.916 522.887 878.133 523.173ZM875.222 519.525C875.448 519.794 875.673 520.065 875.897 520.338C875.836 520.264 875.776 520.19 875.715 520.117C875.552 519.918 875.387 519.721 875.222 519.525ZM812.871 519.337C812.852 519.621 812.836 519.908 812.825 520.198L812.845 519.765C812.853 519.622 812.862 519.479 812.871 519.337ZM826.689 512.647C826.576 512.73 826.464 512.817 826.352 512.905C826.464 512.817 826.576 512.731 826.689 512.647L826.689 512.647ZM854.896 503.438L854.897 503.439C854.852 503.17 854.809 502.901 854.768 502.632C854.809 502.9 854.851 503.169 854.896 503.438ZM849.839 501.795C850.073 501.85 850.312 501.91 850.553 501.975L850.194 501.881C850.074 501.851 849.956 501.822 849.839 501.795ZM827.274 501.795C827.175 501.823 827.076 501.852 826.978 501.881C827.203 501.815 827.431 501.75 827.662 501.688L827.274 501.795ZM848.17 501.472L848.045 501.45C847.989 501.441 847.934 501.432 847.878 501.423C847.976 501.439 848.073 501.455 848.17 501.472ZM829.254 501.308C829.142 501.331 829.031 501.355 828.921 501.38C829.037 501.354 829.153 501.328 829.27 501.304L829.254 501.308ZM854.343 490.188C854.315 490.429 854.291 490.671 854.269 490.915C854.313 490.427 854.368 489.946 854.433 489.471L854.343 490.188ZM883.432 488.336C883.314 488.523 883.194 488.706 883.069 488.885L883.274 488.582C883.328 488.501 883.38 488.418 883.432 488.336ZM863.57 483.613C863.356 484.316 863.174 485.053 863.018 485.816C863.058 485.621 863.099 485.428 863.142 485.236C863.269 484.679 863.411 484.137 863.57 483.613ZM856.213 482.981C856.169 483.077 856.126 483.174 856.084 483.271C856.169 483.077 856.256 482.884 856.347 482.695L856.213 482.981ZM885.203 482.893L885.205 482.842C885.207 482.774 885.206 482.706 885.206 482.638C885.206 482.724 885.205 482.809 885.203 482.893ZM857.411 480.816L857.412 480.816C857.535 480.636 857.659 480.459 857.783 480.283C857.659 480.459 857.535 480.637 857.411 480.816ZM861.21 476.03C861.151 476.092 861.093 476.155 861.035 476.219C861.163 476.078 861.293 475.941 861.422 475.805C861.351 475.88 861.28 475.954 861.21 476.03Z"
            fill="#11111B" />
        <path
            d="M808.839 614.306C845.611 614.306 875.421 644.107 875.421 680.869C875.421 717.63 845.611 747.431 808.839 747.431C772.066 747.431 742.256 717.63 742.256 680.869C742.256 644.107 772.066 614.306 808.839 614.306Z"
            fill="#11111B" />
        <path
            d="M780.006 354C845.179 354 898.012 406.817 898.012 471.97C898.012 537.123 845.179 589.94 780.006 589.94C714.833 589.94 662 537.123 662 471.97C662 406.817 714.833 354 780.006 354Z"
            fill="#11111B" />
        <path
            d="M1020.48 487.125C1072.68 487.125 1115 529.432 1115 581.62C1115 633.808 1072.68 676.114 1020.48 676.114C968.272 676.114 925.953 633.808 925.953 581.62C925.953 529.432 968.272 487.125 1020.48 487.125Z"
            fill="#11111B" />
    </g>
    <rect id="ground" y="800" width="1115" height="36" fill="#11111B" />
    <defs>
        <filter id="filter0_d_1274_1780" x="131.177" y="129.75" width="183.745" height="189.065"
            filterUnits="userSpaceOnUse" color-interpolation-filters="sRGB">
            <feFlood flood-opacity="0" result="BackgroundImageFix" />
            <feColorMatrix in="SourceAlpha" type="matrix" values="0 0 0 0 0 0 0 0 0 0 0 0 0 0 0 0 0 0 127 0"
                result="hardAlpha" />
            <feOffset />
            <feGaussianBlur stdDeviation="10" />
            <feComposite in2="hardAlpha" operator="out" />
            <feColorMatrix type="matrix" values="0 0 0 0 1 0 0 0 0 1 0 0 0 0 1 0 0 0 0.5 0" />
            <feBlend mode="normal" in2="BackgroundImageFix" result="effect1_dropShadow_1274_1780" />
            <feBlend mode="normal" in="SourceGraphic" in2="effect1_dropShadow_1274_1780" result="shape" />
        </filter>
        <clipPath id="clip0_1274_1780">
            <rect width="1115" height="836" fill="white" />
        </clipPath>
        <clipPath id="clip1_1274_1780">
            <rect width="916" height="587" fill="white" transform="translate(178 249)" />
        </clipPath>
        <clipPath id="clip2_1274_1780">
            <rect width="504" height="329" fill="white" transform="translate(9 507)" />
        </clipPath>
    </defs>
</svg>