<svg viewBox="0 0 20 20" fill="none">
<path fill-rule="evenodd" clip-rule="evenodd" d="M11.4986 1.82609C11.19 1.69922 10.7988 1.69922 10.0163 1.69922C9.23377 1.69922 8.84252 1.69922 8.53394 1.82609C8.12244 1.99524 7.79552 2.3197 7.62507 2.72808C7.54727 2.9145 7.51682 3.1313 7.5049 3.44754C7.48739 3.91229 7.24724 4.34246 6.84142 4.57499C6.43559 4.80752 5.94014 4.79884 5.52585 4.58152C5.24392 4.43364 5.03952 4.3514 4.83793 4.32507C4.39635 4.26737 3.94976 4.38613 3.59641 4.65522C3.33139 4.85704 3.13577 5.1933 2.74452 5.86583C2.35328 6.53836 2.15767 6.87462 2.11407 7.20331C2.05592 7.64155 2.17559 8.08477 2.44673 8.43547C2.57049 8.59555 2.74442 8.73005 3.01436 8.89839C3.4112 9.14588 3.66654 9.56747 3.66652 10.0326C3.66649 10.4976 3.41116 10.9191 3.01436 11.1666C2.74437 11.335 2.57042 11.4696 2.44665 11.6296C2.17551 11.9803 2.05585 12.4235 2.11398 12.8617C2.15758 13.1904 2.35321 13.5267 2.74444 14.1992C3.13568 14.8717 3.33131 15.2081 3.59632 15.4098C3.94967 15.6789 4.39627 15.7976 4.83785 15.74C5.03942 15.7136 5.24382 15.6314 5.52572 15.4836C5.94004 15.2662 6.43552 15.2576 6.84137 15.4901C7.24722 15.7226 7.48738 16.1528 7.5049 16.6176C7.51682 16.9338 7.54727 17.1506 7.62507 17.3371C7.79552 17.7454 8.12244 18.0699 8.53394 18.2391C8.84252 18.3659 9.23377 18.3659 10.0163 18.3659C10.7988 18.3659 11.19 18.3659 11.4986 18.2391C11.9101 18.0699 12.237 17.7454 12.4074 17.3371C12.4853 17.1506 12.5158 16.9338 12.5277 16.6176C12.5452 16.1528 12.7853 15.7226 13.1911 15.4901C13.5969 15.2575 14.0924 15.2662 14.5068 15.4836C14.7887 15.6314 14.993 15.7136 15.1946 15.7399C15.6362 15.7976 16.0828 15.6789 16.4361 15.4098C16.7012 15.208 16.8968 14.8717 17.288 14.1991C17.6793 13.5266 17.8749 13.1904 17.9185 12.8617C17.9766 12.4235 17.8569 11.9802 17.5859 11.6296C17.462 11.4695 17.2881 11.3349 17.0181 11.1666C16.6214 10.9191 16.366 10.4976 16.366 10.0325C16.366 9.56739 16.6214 9.14597 17.0181 8.89855C17.2882 8.73014 17.4621 8.59564 17.5859 8.43547C17.857 8.08483 17.9767 7.64161 17.9186 7.20336C17.8749 6.87468 17.6794 6.53841 17.2881 5.86589C16.8969 5.19336 16.7013 4.85709 16.4362 4.65528C16.0829 4.38619 15.6363 4.26743 15.1947 4.32513C14.9931 4.35146 14.7887 4.43369 14.5069 4.58155C14.0925 4.79888 13.597 4.80757 13.1912 4.57502C12.7854 4.34248 12.5452 3.91227 12.5276 3.4475C12.5157 3.13129 12.4853 2.91449 12.4074 2.72808C12.237 2.3197 11.9101 1.99524 11.4986 1.82609ZM10.0163 12.5326C11.4075 12.5326 12.5353 11.4133 12.5353 10.0326C12.5353 8.6518 11.4075 7.53255 10.0163 7.53255C8.62502 7.53255 7.49724 8.6518 7.49724 10.0326C7.49724 11.4133 8.62502 12.5326 10.0163 12.5326Z" fill="currentColor"/>
</svg>
